<svg version="1.1" viewBox="0.0 0.0 64.0 64.0" fill="none" stroke="none" stroke-linecap="square" stroke-miterlimit="10" xmlns:xlink="http://www.w3.org/1999/xlink" xmlns="http://www.w3.org/2000/svg"><clipPath id="p.0"><path d="m0 0l64.0 0l0 64.0l-64.0 0l0 -64.0z" clip-rule="nonzero"/></clipPath><g clip-path="url(#p.0)"><path fill="#ffffff" d="m0 0l64.0 0l0 64.0l-64.0 0z" fill-rule="evenodd"/><path fill="#000000" fill-opacity="0.0" d="m-1.5013124 18.96063l68.125984 0l0 26.078741l-68.125984 0z" fill-rule="evenodd"/><path fill="#000000" d="m3.754902 42.65375q-0.1875 0 -0.328125 -0.09375q-0.140625 -0.09375 -0.140625 -0.296875q0 -0.234375 0.15625 -0.34375q0.15625 -0.125 0.390625 -0.203125q0.796875 -0.234375 1.078125 -0.46875q0.296875 -0.234375 0.296875 -0.6875l0 -4.5625q0 -1.328125 -0.6875 -2.265625q-0.6875 -0.9375 -1.5625 -1.734375q-0.59375 -0.53125 -1.1718751 -1.140625q-0.5625 -0.609375 -0.95312494 -1.375q-0.37500003 -0.765625 -0.37500003 -1.703125q0 -1.734375 0.890625 -3.0q0.9062501 -1.28125 2.484375 -1.984375q1.59375 -0.703125 3.578125 -0.703125q1.46875 0 2.9375 0.4375q1.46875 0.4375 2.46875 1.734375q0.234375 0.34375 0.234375 0.578125q0 0.390625 -0.359375 0.765625q-0.359375 0.359375 -0.75 0.59375q-0.390625 0.234375 -0.59375 0.234375q-0.234375 0 -0.484375 -0.140625q-0.25 -0.15625 -0.40625 -0.359375q-0.578125 -0.828125 -1.03125 -1.28125q-0.453125 -0.453125 -0.90625 -0.640625q-0.4375 -0.1875 -0.984375 -0.1875q-0.890625 0 -1.5625 0.421875q-0.671875 0.421875 -1.046875 1.140625q-0.359375 0.71875 -0.359375 1.625q0 0.90625 0.3125 1.578125q0.328125 0.65625 0.796875 1.15625q0.46875 0.5 1.0 0.9375q0.59375 0.46875 1.125 1.078125q0.546875 0.59375 0.90625 1.5q0.375 0.90625 0.375 2.234375l0 5.09375q0 0.5 0.3125 0.703125q0.328125 0.1875 1.0625 0.359375q0.234375 0.078125 0.375 0.21875q0.15625 0.125 0.15625 0.359375q0 0.1875 -0.15625 0.296875q-0.15625 0.09375 -0.34375 0.09375q-0.546875 0 -1.125 -0.03125q-0.578125 -0.03125 -1.125 -0.0625q-0.53125 -0.03125 -1.0625 -0.03125q-0.5 0 -1.09375 0.03125q-0.578125 0.03125 -1.1875 0.078125q-0.59375 0.046875 -1.140625 0.046875zm15.155365 -6.109375q-1.234375 0 -2.234375 -0.578125q-0.984375 -0.59375 -1.578125 -1.59375q-0.59375 -1.0 -0.59375 -2.1875q0 -1.265625 0.59375 -2.265625q0.59375 -1.0 1.578125 -1.578125q1.0 -0.59375 2.234375 -0.59375q1.234375 0 2.21875 0.59375q0.984375 0.578125 1.578125 1.578125q0.609375 1.0 0.609375 2.265625q0 1.1875 -0.609375 2.1875q-0.59375 1.0 -1.578125 1.59375q-0.984375 0.578125 -2.21875 0.578125z" fill-rule="nonzero"/><path fill="#000000" d="m40.099644 40.700626q0 1.234375 -1.390625 1.8125q-1.03125 0.453125 -2.4375 0.453125q-1.703125 0 -3.9375 -2.546875q-2.21875 2.546875 -3.921875 2.546875q-1.40625 0 -2.4375 -0.453125q-1.390625 -0.578125 -1.390625 -1.8125q0 -1.359375 1.234375 -1.359375q0.84375 0 1.484375 1.234375q0.46875 0.890625 0.484375 0.890625q0.296875 0.421875 0.890625 0.421875q0.953125 0 2.84375 -2.21875q-1.09375 -1.015625 -2.765625 -2.703125q-0.765625 -0.9375 -1.0 -1.5q-0.3125 -0.796875 -0.3125 -2.25q0 -1.828125 1.546875 -3.15625q1.484375 -1.296875 3.34375 -1.296875q1.859375 0 3.34375 1.296875q1.5625 1.328125 1.5625 3.15625q0 1.453125 -0.3125 2.25q-0.234375 0.5625 -1.0 1.5q-0.828125 0.75 -2.765625 2.703125q1.890625 2.21875 2.84375 2.21875q0.59375 0 0.890625 -0.421875q0.015625 0 0.484375 -0.890625q0.640625 -1.234375 1.484375 -1.234375q1.234375 0 1.234375 1.359375z" fill-rule="nonzero"/><path fill="#000000" d="m45.80254 36.544376q-1.234375 0 -2.234375 -0.578125q-0.984375 -0.59375 -1.578125 -1.59375q-0.59375 -1.0 -0.59375 -2.1875q0 -1.265625 0.59375 -2.265625q0.59375 -1.0 1.578125 -1.578125q1.0 -0.59375 2.234375 -0.59375q1.234375 0 2.21875 0.59375q0.984375 0.578125 1.578125 1.578125q0.609375 1.0 0.609375 2.265625q0 1.1875 -0.609375 2.1875q-0.59375 1.0 -1.578125 1.59375q-0.984375 0.578125 -2.21875 0.578125zm8.798752 6.109375q-0.171875 0 -0.34375 -0.109375q-0.15625 -0.109375 -0.15625 -0.28125q0 -0.234375 0.140625 -0.375q0.15625 -0.15625 0.390625 -0.203125q0.734375 -0.1875 1.046875 -0.390625q0.328125 -0.203125 0.328125 -0.703125l0 -4.921875q0 -1.234375 0.34375 -2.0q0.359375 -0.765625 0.859375 -1.25q0.5 -0.5 1.03125 -0.828125q0.546875 -0.40625 1.078125 -0.875q0.53125 -0.46875 0.859375 -1.234375q0.34375 -0.765625 0.34375 -2.0q0 -1.640625 -0.859375 -2.828125q-0.84375 -1.1875 -2.453125 -1.1875q-0.703125 0 -1.3125 0.28125q-0.59375 0.28125 -0.984375 0.765625q-0.375 0.484375 -0.375 1.09375q0 0.671875 -0.375 1.125q-0.359375 0.4375 -0.859375 0.625q-0.5 0.1875 -0.96875 0.1875q-0.28125 0 -0.5 -0.09375q-0.203125 -0.109375 -0.203125 -0.515625q0 -1.0625 0.734375 -2.171875q0.734375 -1.125 2.171875 -1.890625q1.4375 -0.78125 3.46875 -0.78125q2.015625 0 3.515625 0.609375q1.4999962 0.59375 2.3124962 1.65625q0.828125 1.046875 0.828125 2.421875q0 0.96875 -0.25 1.75q-0.25 0.78125 -0.65625 1.359375q-0.390625 0.5625 -0.84375 0.984375q-0.4531212 0.421875 -0.9218712 0.78125q-0.84375 0.640625 -1.484375 1.4375q-0.625 0.78125 -0.625 2.078125l0 5.390625q0 0.453125 0.296875 0.671875q0.3125 0.21875 1.078125 0.453125q0.234375 0.078125 0.390625 0.203125q0.171875 0.109375 0.171875 0.34375q0 0.203125 -0.140625 0.296875q-0.125 0.09375 -0.328125 0.09375q-0.5625 0 -1.171875 -0.03125q-0.59375 -0.03125 -1.171875 -0.0625q-0.5625 -0.03125 -1.09375 -0.03125q-0.5 0 -1.0625 0.03125q-0.546875 0.03125 -1.109375 0.078125q-0.546875 0.046875 -1.140625 0.046875z" fill-rule="nonzero"/></g></svg>